<svg version="1.1" id="Layer_1" xmlns="http://www.w3.org/2000/svg" xmlns:xlink="http://www.w3.org/1999/xlink" x="0px" y="0px"
	 width="100%" viewBox="0 0 500 500" enable-background="new 0 0 500 500" xml:space="preserve">
<path fill="#FFFFFF" opacity="1.000000" stroke="none" 
	d="
M230.000000,501.000000 
	C153.333359,501.000000 77.166702,501.000000 1.000041,501.000000 
	C1.000027,334.333405 1.000027,167.666779 1.000014,1.000130 
	C167.666565,1.000087 334.333130,1.000087 500.999756,1.000043 
	C500.999847,167.666519 500.999847,334.333038 500.999939,500.999786 
	C410.833344,501.000000 320.666656,501.000000 230.000000,501.000000 
M251.963776,365.054169 
	C253.761368,365.471619 255.558960,365.889099 256.389191,366.081909 
	C256.389191,361.087769 256.524506,356.619965 256.303741,352.169800 
	C256.240509,350.895294 255.146973,349.671875 254.086258,347.542542 
	C254.086258,353.266571 254.327728,357.456665 253.945328,361.589081 
	C253.823944,362.901001 252.040390,364.059113 250.633636,364.411713 
	C250.209763,362.204041 250.158264,359.824158 249.242447,357.843994 
	C248.528564,356.300415 246.915009,354.564178 245.380844,354.174255 
	C243.737656,353.756592 241.719406,354.814667 239.864853,355.228668 
	C240.053589,355.445770 240.242325,355.662842 240.431061,355.879944 
	C242.625366,356.333466 244.819672,356.786987 247.013977,357.240509 
	C244.764771,358.933289 242.681015,359.011475 241.003418,359.876923 
	C239.986893,360.401337 238.950882,362.242371 239.112305,363.312561 
	C239.271835,364.370239 240.907501,365.964355 241.929230,365.990082 
	C244.955994,366.066284 247.999344,365.484833 251.963776,365.054169 
M269.736237,240.175415 
	C285.497955,238.936127 301.256714,237.656357 317.023743,236.489075 
	C320.494934,236.232101 322.521851,234.971008 322.925049,231.206711 
	C324.201202,219.293091 325.727722,207.406464 327.044769,195.496964 
	C327.756012,189.065231 326.897919,188.308960 320.513123,188.124985 
	C312.050751,187.881088 303.593323,187.464935 294.788544,186.528412 
	C277.712799,169.449188 260.588959,152.417587 243.598663,135.253799 
	C239.844452,131.461258 235.746170,129.648788 230.311707,129.751480 
	C216.492035,130.012650 202.664078,129.815369 188.839523,129.846100 
	C178.911469,129.868149 174.567093,134.126190 174.501129,144.114960 
	C174.410965,157.772415 174.590942,171.432251 174.426163,185.088318 
	C174.357101,190.812485 176.378540,195.173553 180.469620,199.203583 
	C198.267212,216.735596 215.844742,234.491013 233.298920,252.972595 
	C231.781494,258.771942 235.236023,262.276581 239.399963,265.486420 
	C235.058746,268.157867 233.337204,271.708008 235.638870,276.157959 
	C237.456558,279.672180 240.773193,280.966888 244.523605,279.437042 
	C246.090240,278.798004 248.102875,277.289246 248.385147,275.871704 
	C248.979691,272.886047 248.565918,269.699585 248.565918,266.577209 
	C267.232635,266.577209 286.632263,266.577209 306.521454,266.577209 
	C304.439758,271.120270 303.211609,275.290710 307.624573,278.542847 
	C310.496674,280.659454 313.602478,280.612518 316.386292,278.377594 
	C320.555969,275.030121 319.455109,270.960938 317.218811,266.792480 
	C319.085052,266.591309 320.767883,266.821930 321.967194,266.167084 
	C323.216675,265.484833 324.788879,263.934570 324.768951,262.789093 
	C324.748169,261.597290 323.171326,260.160339 321.933319,259.356995 
	C321.098511,258.815308 319.671539,259.156708 318.509308,259.153564 
	C296.378967,259.093536 274.248535,259.058624 252.118439,258.952271 
	C250.417801,258.944122 248.719528,258.443604 247.766296,258.038483 
	C250.439560,256.502808 253.458389,255.355682 255.713577,253.349960 
	C260.294617,249.275620 264.462921,244.737198 269.736237,240.175415 
M316.218140,314.727539 
	C316.805206,315.619263 317.801666,316.464050 317.910248,317.410675 
	C318.452972,322.141083 318.762726,326.898193 319.184418,332.009491 
	C323.651520,332.009491 327.631622,331.816467 331.582611,332.072327 
	C334.588165,332.266907 335.930389,331.090820 337.084595,328.383820 
	C337.717133,326.900360 339.839874,325.569733 341.535614,325.142609 
	C343.726776,324.590668 346.192078,324.791779 348.481567,325.098969 
	C349.731995,325.266724 351.716553,326.132172 351.911865,327.008087 
	C353.347473,333.446869 357.737000,332.219452 362.536224,331.613861 
	C358.162292,320.714935 354.082886,310.190063 349.613037,299.833771 
	C349.003845,298.422333 346.445801,297.106323 344.787079,297.102600 
	C343.117157,297.098877 340.636749,298.381409 339.919006,299.808319 
	C337.537262,304.543427 335.807129,309.604675 333.793182,314.526947 
	C331.792633,319.416473 329.751190,324.289246 327.223053,330.386353 
	C326.077393,318.370209 325.072937,307.834656 324.082855,297.450073 
	C315.528961,296.221252 315.557037,296.231842 312.788177,303.584290 
	C311.259766,307.642883 309.618500,311.658966 307.633240,316.696106 
	C305.478668,311.141144 303.815643,306.805969 302.116852,302.484833 
	C299.601562,296.086853 298.361969,295.557068 291.156219,297.865814 
	C290.155487,309.092682 289.147858,320.397095 288.133392,331.777893 
	C291.242371,331.777893 293.537933,331.777893 296.223877,331.777893 
	C296.798157,325.641724 297.356110,319.680176 297.914032,313.718628 
	C300.598389,318.790771 302.275391,323.980988 304.316528,329.023804 
	C304.807373,330.236450 306.500153,331.691254 307.651398,331.700928 
	C308.779663,331.710449 310.455566,330.244202 310.963196,329.035858 
	C312.827179,324.598907 314.305267,319.999847 316.218140,314.727539 
M50.202965,296.973236 
	C40.777481,294.516571 31.964670,298.176056 28.929174,306.805695 
	C27.528641,310.787262 27.461779,315.607727 28.101032,319.850311 
	C29.058376,326.204010 33.807751,329.995087 38.961960,331.970093 
	C37.967758,334.044891 37.121880,335.810120 36.275993,337.575378 
	C38.054451,337.649841 39.836624,337.675995 41.610332,337.812286 
	C43.422070,337.951538 45.276772,337.999847 47.019726,338.448792 
	C49.263878,339.026825 51.530636,340.820190 53.579929,340.544708 
	C56.615501,340.136688 59.743259,338.750244 62.230373,336.949615 
	C62.967632,336.415802 61.682705,333.088806 61.450142,331.760101 
	C57.787537,332.060822 55.168884,332.275818 52.550232,332.490814 
	C67.320625,322.114227 64.156891,302.380859 50.202965,296.973236 
M416.842072,296.892883 
	C414.791077,298.363434 412.504425,299.598663 410.744995,301.360413 
	C408.184692,303.924011 406.004181,306.866943 403.661743,309.648132 
	C403.298584,309.457397 402.935425,309.266663 402.572266,309.075897 
	C402.572266,305.152557 402.572266,301.229218 402.572266,297.185730 
	C399.691498,297.185730 397.277283,297.185730 394.614502,297.185730 
	C394.614502,308.851135 394.614502,320.220245 394.614502,331.752533 
	C397.371429,331.752533 399.792480,331.752533 402.750092,331.752533 
	C402.750092,327.307648 402.750092,323.098206 402.750092,317.559784 
	C406.125702,321.377563 408.674835,324.130157 411.077118,327.005493 
	C415.700073,332.538788 418.241058,333.317474 425.784668,331.087524 
	C420.639832,325.169647 415.577759,319.346954 410.481354,313.484772 
	C415.117157,307.881195 419.386505,302.720581 424.210144,296.889954 
	C421.307220,296.889954 419.489563,296.889954 416.842072,296.892883 
M176.120392,309.513367 
	C176.120392,316.918671 176.120392,324.324005 176.120392,331.766510 
	C186.476791,332.351196 196.346649,333.418457 201.986511,323.184387 
	C205.517746,316.776672 205.414658,309.961487 200.954514,303.900848 
	C194.622253,295.296295 185.503403,296.607178 176.120575,297.241974 
	C176.120575,301.273407 176.120575,304.897186 176.120392,309.513367 
M389.589020,327.864807 
	C386.917328,324.536438 384.245605,321.208069 381.512482,317.803192 
	C383.005432,316.650452 384.156311,315.942566 385.084595,315.012573 
	C388.393188,311.697845 389.264008,307.310242 387.324677,303.518250 
	C385.933533,300.798218 382.638336,297.946472 379.740448,297.349976 
	C374.844116,296.342133 369.589813,297.073395 364.369385,297.073395 
	C364.369385,308.920654 364.369385,320.302979 364.369385,331.731384 
	C367.003143,331.731384 369.264893,331.731384 372.225281,331.731384 
	C372.225281,327.541840 372.225281,323.598999 372.225281,318.791992 
	C378.493835,324.968597 380.854248,335.349182 392.352722,331.373688 
	C391.586304,330.390381 390.813110,329.398376 389.589020,327.864807 
M69.469109,296.890198 
	C68.043533,297.576019 65.385277,298.252960 65.380264,298.949005 
	C65.320549,307.252655 65.075592,315.629761 66.076408,323.841736 
	C66.831543,330.037872 72.441689,333.078613 79.715843,332.817291 
	C86.855453,332.560852 92.143646,328.974915 92.595291,322.699493 
	C93.199883,314.299042 92.744919,305.822296 92.744919,297.310059 
	C89.956596,297.310059 87.587555,297.310059 84.611542,297.310059 
	C84.611542,304.864777 84.728050,312.007996 84.561714,319.144623 
	C84.480209,322.641815 82.622169,324.571655 78.791313,324.424988 
	C74.750031,324.270294 73.763344,321.823242 73.744301,318.451996 
	C73.710411,312.452545 73.638046,306.451813 73.728340,300.453827 
	C73.765228,298.003754 73.108475,296.561646 69.469109,296.890198 
M159.950577,300.237640 
	C157.223175,303.409119 154.495773,306.580597 150.804993,310.872314 
	C150.804993,305.323669 150.804993,301.392914 150.804993,297.273376 
	C148.019119,297.273376 145.656250,297.273376 143.319305,297.273376 
	C143.319305,309.027191 143.319305,320.398987 143.319305,331.668732 
	C146.003677,331.668732 148.258667,331.668732 151.009918,331.668732 
	C151.009918,327.136688 151.009918,322.921875 151.009918,317.968842 
	C158.460876,323.888153 161.571793,336.013397 174.160294,331.196075 
	C168.952713,325.252350 163.833405,319.409363 158.631760,313.472443 
	C163.268265,307.930023 167.567581,302.790710 171.866882,297.651367 
	C171.503479,297.035858 171.140076,296.420319 170.776672,295.804810 
	C167.316864,297.079529 163.857071,298.354248 159.950577,300.237640 
M229.451355,331.623779 
	C234.064697,332.509247 238.423813,333.048981 239.662781,326.680969 
	C239.805008,325.949982 241.658051,325.183014 242.775391,325.084320 
	C245.414001,324.851410 248.114594,324.789581 250.734390,325.111725 
	C251.935913,325.259460 253.803467,326.299469 254.007553,327.232574 
	C255.395432,333.578308 259.922943,332.013367 264.617645,331.780365 
	C260.130096,320.659332 255.921738,309.858521 251.292572,299.241180 
	C250.730972,297.953125 247.873962,297.015778 246.130814,297.090027 
	C244.621475,297.154358 242.419952,298.561066 241.835190,299.933075 
	C237.477249,310.157959 233.445877,320.521973 229.451355,331.623779 
M120.416115,308.031708 
	C125.134613,303.098877 130.662521,303.470123 136.639969,305.966217 
	C137.781937,303.719147 138.807037,301.702057 139.805954,299.736481 
	C131.766479,293.902344 120.625374,295.261047 113.869034,302.648468 
	C107.744598,309.344971 107.578186,318.903625 113.466103,325.794983 
	C120.103203,333.563232 130.720169,335.017181 139.815521,329.138245 
	C138.712784,327.061859 137.599136,324.964905 136.554642,322.998169 
	C130.556580,324.655701 125.056389,325.889893 120.688210,321.030426 
	C117.305595,317.267365 117.102600,312.967102 120.416115,308.031708 
M447.134308,325.180054 
	C443.547394,325.180054 439.960449,325.180054 436.310486,325.180054 
	C436.310486,322.356750 436.310486,320.434998 436.310486,318.197327 
	C440.241913,318.013794 443.943542,317.841003 447.501617,317.674896 
	C447.501617,315.157837 447.501617,313.244659 447.501617,310.790680 
	C443.576263,310.790680 440.006836,310.790680 436.313446,310.790680 
	C436.313446,308.327057 436.313446,306.412903 436.313446,303.874664 
	C440.277405,303.874664 444.002167,303.874664 447.828552,303.874664 
	C447.828552,301.326416 447.828552,299.406067 447.828552,297.231384 
	C441.198364,297.231384 434.837189,297.231384 428.364471,297.231384 
	C428.364471,308.920502 428.364471,320.274628 428.364471,331.605042 
	C435.098297,331.605042 441.470520,331.605042 448.112457,331.605042 
	C448.007141,329.388794 447.921326,327.582245 447.134308,325.180054 
M207.898926,312.502808 
	C207.898926,318.916565 207.898926,325.330322 207.898926,331.708466 
	C215.008499,331.708466 221.269531,331.708466 227.598511,331.708466 
	C227.598511,329.370941 227.598511,327.334381 227.598511,324.858398 
	C223.614410,324.858398 220.015945,324.858398 216.326447,324.858398 
	C216.326447,322.369843 216.326447,320.333008 216.326447,317.734497 
	C220.113266,317.734497 223.517960,317.734497 226.914062,317.734497 
	C226.914062,315.248108 226.914062,313.332733 226.914062,311.158203 
	C223.178879,310.986298 219.764450,310.829132 216.204025,310.665253 
	C216.204025,308.344818 216.204025,306.426697 216.204025,303.878723 
	C220.170547,303.878723 223.901581,303.878723 227.722900,303.878723 
	C227.722900,301.320862 227.722900,299.396057 227.722900,297.255859 
	C221.083359,297.255859 214.709961,297.255859 207.898788,297.255859 
	C207.898788,302.238495 207.898788,306.871490 207.898926,312.502808 
M475.183929,300.446320 
	C474.423218,299.274109 473.698517,297.113403 472.896088,297.084137 
	C465.657806,296.820129 458.405914,296.929718 451.058228,296.929718 
	C451.058228,299.535492 451.058228,301.449493 451.058228,303.620270 
	C453.723480,303.840790 456.123627,304.039368 459.077148,304.283752 
	C459.077148,313.580902 459.077148,322.616669 459.077148,331.572998 
	C462.041718,331.572998 464.408234,331.572998 467.171082,331.572998 
	C467.171082,322.240509 467.171082,313.330933 467.171082,305.071808 
	C469.645569,302.255707 474.358154,306.625061 475.183929,300.446320 
M285.133820,325.179871 
	C281.553375,325.179871 277.972931,325.179871 273.817413,325.179871 
	C273.817413,315.226013 273.817413,306.186096 273.817413,297.230957 
	C270.967010,297.230957 268.715851,297.230957 266.364807,297.230957 
	C266.364807,308.919159 266.364807,320.274292 266.364807,331.604797 
	C273.097778,331.604797 279.470215,331.604797 286.112549,331.604797 
	C286.007233,329.390656 285.921265,327.583038 285.133820,325.179871 
M102.417030,296.891663 
	C100.831619,296.995331 99.246201,297.098999 97.578369,297.208069 
	C97.578369,308.977386 97.578369,320.233002 97.578369,331.597992 
	C100.412079,331.597992 102.939484,331.597992 105.810608,331.597992 
	C105.810608,320.713654 105.875824,310.238159 105.702171,299.766602 
	C105.686134,298.799164 104.149902,297.856934 102.417030,296.891663 
M218.876266,362.953430 
	C218.774796,360.834747 218.673309,358.716095 218.577744,356.720734 
	C224.773621,354.459381 224.839920,354.484100 225.217926,360.603394 
	C225.393799,363.450867 225.878159,366.068970 229.483749,366.114136 
	C231.889725,366.144287 234.299591,365.863495 236.305939,365.745483 
	C236.015305,363.248322 235.594528,360.894043 235.498138,358.526550 
	C235.328491,354.359894 235.411484,354.356506 231.862320,354.564911 
	C232.006210,355.028992 232.248032,355.454437 232.252701,355.882416 
	C232.279922,358.374176 232.340683,360.874512 232.118866,363.347656 
	C232.093643,363.628876 229.602432,364.038330 229.558243,363.916321 
	C228.828369,361.900604 228.490250,359.733856 227.676895,357.760712 
	C227.114975,356.397522 226.203369,354.619568 225.022079,354.185059 
	C222.434265,353.233246 219.575607,353.017822 216.281723,352.399139 
	C216.035461,352.711426 215.075958,353.928162 214.856827,354.206055 
	C215.353394,357.121796 215.832626,359.289764 216.073257,361.483887 
	C216.566345,365.980103 218.416321,366.997498 222.708939,364.546112 
	C221.354492,364.203522 220.324921,363.943115 218.876266,362.953430 
M275.362274,348.765472 
	C272.124481,348.344147 269.022156,348.793365 268.285126,352.468506 
	C267.489777,356.434418 270.792816,357.331421 273.714600,358.230316 
	C274.347473,358.425018 275.120209,358.507446 275.558105,358.925110 
	C276.595703,359.914856 277.470917,361.074799 278.411804,362.165924 
	C277.000641,362.773376 275.317993,364.183777 274.235809,363.817963 
	C272.105042,363.097717 270.307617,361.391449 267.997925,359.841888 
	C267.997925,361.907623 267.997925,363.843628 267.997925,365.312317 
	C270.840729,365.608612 273.435455,366.464569 275.713501,365.941498 
	C277.736298,365.476990 279.407684,363.482056 281.234161,362.162659 
	C279.992706,360.466187 278.996277,358.475800 277.429413,357.169800 
	C276.255280,356.191101 274.240265,356.293152 272.805817,355.527679 
	C271.960022,355.076294 270.811493,353.475281 271.031403,353.084290 
	C271.567200,352.131500 273.070190,350.801910 273.739899,351.015533 
	C275.852661,351.689362 277.761475,353.002747 280.253906,354.339264 
	C280.332611,352.810577 280.425110,351.014771 280.515533,349.258789 
	C278.710175,349.123199 277.426788,349.026794 275.362274,348.765472 
M189.885452,349.015381 
	C189.099915,353.352356 188.314377,357.689331 187.528839,362.026337 
	C186.903656,361.966156 186.278473,361.905975 185.653305,361.845795 
	C184.407516,357.723572 183.161713,353.601379 181.800125,349.095978 
	C181.184387,349.095978 179.332367,349.095978 177.901718,349.095978 
	C179.582474,352.822906 181.093781,356.377502 182.783340,359.845245 
	C183.814728,361.962128 185.120270,363.945435 186.302673,365.988739 
	C187.596237,363.879059 189.069016,361.856110 190.141876,359.639618 
	C191.800629,356.212616 193.186066,352.653351 194.855057,348.759003 
	C193.660980,348.759003 192.079987,348.759003 189.885452,349.015381 
M317.288727,370.442810 
	C316.740601,369.095184 316.192444,367.747528 315.532715,366.125580 
	C317.642242,366.125580 318.959747,366.276672 320.230316,366.096558 
	C323.694763,365.605316 324.893524,363.102539 324.910553,360.031311 
	C324.927948,356.888916 323.500488,354.373383 320.121918,354.067749 
	C317.507690,353.831268 314.830444,354.291840 312.714111,354.412201 
	C312.714111,360.246368 312.714111,365.679047 312.714111,371.606537 
	C313.961182,371.467987 315.515686,371.295227 317.288727,370.442810 
M287.030914,353.948029 
	C286.838196,348.863525 286.838196,348.863525 284.044464,349.372162 
	C284.044464,354.819214 284.044464,360.144562 284.044464,365.755798 
	C285.030975,365.755798 286.568054,365.755798 287.705383,365.755798 
	C287.439850,363.326935 286.874969,361.085114 287.095825,358.923615 
	C287.203247,357.871887 288.778931,356.970184 289.689941,356.000549 
	C290.443451,356.993469 291.512421,357.887054 291.865021,359.006256 
	C292.245178,360.213043 291.602264,361.767822 292.049744,362.920837 
	C292.560455,364.236877 293.781677,365.277191 294.694122,366.437317 
	C294.785187,363.858032 294.139801,362.014374 294.099579,360.157623 
	C293.979736,354.625702 292.774170,353.546234 287.030914,353.948029 
M307.465790,354.900757 
	C302.380859,353.302643 298.419983,354.751648 298.315125,358.844879 
	C298.258118,361.069519 299.663605,364.394287 301.409607,365.304626 
	C303.168457,366.221741 306.891174,365.572876 308.461517,364.167023 
	C311.245361,361.674835 310.786774,358.215302 307.465790,354.900757 
M208.921509,364.331055 
	C208.786530,362.461517 208.826202,360.556885 208.460236,358.733734 
	C208.177521,357.325226 207.386353,356.018768 206.821243,354.666962 
	C205.777573,357.158295 206.231140,359.140533 205.855698,360.950806 
	C205.551453,362.417755 204.250473,363.677979 203.391586,365.029907 
	C202.616135,363.751862 201.503357,362.558746 201.154678,361.173279 
	C200.761444,359.610840 201.352142,357.797363 200.943268,356.243469 
	C200.686523,355.267670 199.378281,354.568542 198.343399,353.550049 
	C198.343399,358.267242 198.343399,361.945190 198.343399,366.186462 
	C201.639023,365.814880 205.523071,365.376953 208.921509,364.331055 
z"/>
<path fill="#FE7F01" opacity="1.000000" stroke="none" 
	d="
M233.502228,252.165268 
	C215.844742,234.491013 198.267212,216.735596 180.469620,199.203583 
	C176.378540,195.173553 174.357101,190.812485 174.426163,185.088318 
	C174.590942,171.432251 174.410965,157.772415 174.501129,144.114960 
	C174.567093,134.126190 178.911469,129.868149 188.839523,129.846100 
	C202.664078,129.815369 216.492035,130.012650 230.311707,129.751480 
	C235.746170,129.648788 239.844452,131.461258 243.598663,135.253799 
	C260.588959,152.417587 277.712799,169.449188 294.484711,186.916519 
	C275.390137,186.909622 256.597198,186.582748 237.812958,185.983826 
	C236.387665,185.938370 234.381546,184.250381 233.744858,182.832306 
	C231.230255,177.231689 229.011215,171.484589 226.968872,165.690887 
	C225.736237,162.194168 223.897873,160.222260 219.947205,159.800598 
	C215.016357,159.274277 210.164841,158.004486 205.468475,156.696442 
	C207.701996,148.250122 203.595215,142.203690 196.320160,142.589279 
	C191.101700,142.865860 186.921234,147.384140 187.152161,152.498093 
	C187.415207,158.322739 191.861542,161.846344 199.101410,162.101105 
	C201.247833,163.230865 203.111282,164.346664 205.125687,164.819763 
	C208.841034,165.692368 212.708572,165.953003 216.382690,166.948441 
	C217.995316,167.385361 220.045319,168.698410 220.613953,170.124969 
	C229.227951,191.734756 237.574661,213.450989 246.147522,235.077454 
	C247.223831,237.792664 246.532990,239.107330 244.516281,240.928375 
	C240.630829,244.436920 237.150543,248.394119 233.502228,252.165268 
z"/>
<path fill="#2C2523" opacity="1.000000" stroke="none" 
	d="
M233.400574,252.568939 
	C237.150543,248.394119 240.630829,244.436920 244.516281,240.928375 
	C246.532990,239.107330 247.223831,237.792664 246.147522,235.077454 
	C237.574661,213.450989 229.227951,191.734756 220.613953,170.124969 
	C220.045319,168.698410 217.995316,167.385361 216.382690,166.948441 
	C212.708572,165.953003 208.841034,165.692368 205.125687,164.819763 
	C203.111282,164.346664 201.247833,163.230865 199.137817,161.729645 
	C199.179489,156.739975 202.298721,157.007568 205.279083,157.055695 
	C210.164841,158.004486 215.016357,159.274277 219.947205,159.800598 
	C223.897873,160.222260 225.736237,162.194168 226.968872,165.690887 
	C229.011215,171.484589 231.230255,177.231689 233.744858,182.832306 
	C234.381546,184.250381 236.387665,185.938370 237.812958,185.983826 
	C256.597198,186.582748 275.390137,186.909622 294.657349,187.213715 
	C303.593323,187.464935 312.050751,187.881088 320.513123,188.124985 
	C326.897919,188.308960 327.756012,189.065231 327.044769,195.496964 
	C325.727722,207.406464 324.201202,219.293091 322.925049,231.206711 
	C322.521851,234.971008 320.494934,236.232101 317.023743,236.489075 
	C301.256714,237.656357 285.497955,238.936127 268.882751,240.214172 
	C263.514862,240.902084 258.581909,240.632538 254.598572,242.447327 
	C250.229416,244.437927 246.519608,248.125839 242.971817,251.540924 
	C241.630096,252.832443 241.543518,255.427841 240.884796,257.428894 
	C242.929916,257.676575 244.975037,257.924255 247.020157,258.171936 
	C248.719528,258.443604 250.417801,258.944122 252.118439,258.952271 
	C274.248535,259.058624 296.378967,259.093536 318.509308,259.153564 
	C319.671539,259.156708 321.098511,258.815308 321.933319,259.356995 
	C323.171326,260.160339 324.748169,261.597290 324.768951,262.789093 
	C324.788879,263.934570 323.216675,265.484833 321.967194,266.167084 
	C320.767883,266.821930 319.085052,266.591309 317.218811,266.792480 
	C319.455109,270.960938 320.555969,275.030121 316.386292,278.377594 
	C313.602478,280.612518 310.496674,280.659454 307.624573,278.542847 
	C303.211609,275.290710 304.439758,271.120270 306.521454,266.577209 
	C286.632263,266.577209 267.232635,266.577209 248.565918,266.577209 
	C248.565918,269.699585 248.979691,272.886047 248.385147,275.871704 
	C248.102875,277.289246 246.090240,278.798004 244.523605,279.437042 
	C240.773193,280.966888 237.456558,279.672180 235.638870,276.157959 
	C233.337204,271.708008 235.058746,268.157867 239.399963,265.486420 
	C235.236023,262.276581 231.781494,258.771942 233.400574,252.568939 
M303.633331,204.826996 
	C305.352448,204.826996 307.071564,204.826996 308.823608,204.826996 
	C308.823608,200.758423 308.823608,197.359024 308.823608,193.637924 
	C306.240967,193.499695 303.820465,193.370148 300.632141,193.166229 
	C299.356903,193.248093 298.081665,193.329941 296.648895,193.421921 
	C296.648895,197.258591 296.648895,200.812637 296.648895,204.669403 
	C298.847595,204.669403 300.779205,204.669403 303.633331,204.826996 
M281.910614,227.879837 
	C281.910614,229.142807 281.910614,230.405777 281.910614,232.153992 
	C286.138031,231.756790 289.969330,231.396805 293.781067,231.038666 
	C293.781067,227.649246 293.781067,224.721695 293.781067,221.440964 
	C291.429810,221.603882 289.313446,221.750519 286.513824,221.589066 
	C285.087402,221.589066 283.660980,221.589066 282.073425,221.589066 
	C282.073425,223.731201 282.073425,225.360321 281.910614,227.879837 
M259.407471,204.854660 
	C260.842072,204.762924 262.276672,204.671188 263.823669,204.572266 
	C263.823669,200.360184 263.823669,196.497437 263.823669,192.354187 
	C259.801941,192.354187 256.095154,192.354187 252.235458,192.354187 
	C252.235458,196.500336 252.235458,200.489868 252.235458,204.854599 
	C254.556244,204.854599 256.510986,204.854599 259.407471,204.854660 
M260.386719,233.883057 
	C261.635162,232.992233 263.786621,232.248474 263.960205,231.182602 
	C264.451294,228.167511 264.132050,225.020432 264.132050,221.655746 
	C259.875854,221.655746 256.151794,221.655746 252.471695,221.655746 
	C250.742462,230.839462 252.711548,234.202072 260.386719,233.883057 
M267.895996,192.572433 
	C267.440491,196.475677 266.984985,200.378937 266.494720,204.580170 
	C271.185577,204.580170 274.889465,204.580170 278.843201,204.580170 
	C278.843201,200.609802 278.843201,196.915146 278.843201,192.973099 
	C275.295197,192.778320 272.026123,192.598862 267.895996,192.572433 
M283.699402,192.950470 
	C282.873352,196.708542 282.047333,200.466599 281.167450,204.469620 
	C286.317017,204.469620 290.007294,204.469620 293.707336,204.469620 
	C293.707336,200.545883 293.707336,196.988708 293.707336,192.990723 
	C290.509369,192.990723 287.578003,192.990723 283.699402,192.950470 
M279.104401,217.292709 
	C279.104401,214.181046 279.104401,211.069382 279.104401,207.820633 
	C274.808929,207.820633 270.982025,207.820633 267.119507,207.820633 
	C267.119507,211.682068 267.119507,215.095734 267.119507,219.274399 
	C271.253143,218.907333 275.093262,218.566330 279.104401,217.292709 
M251.866837,209.810989 
	C251.866837,212.740372 251.866837,215.669754 251.866837,218.736267 
	C256.196075,218.736267 259.925385,218.736267 263.819763,218.736267 
	C263.819763,214.933273 263.819763,211.397690 263.819763,206.691025 
	C259.530487,207.488907 255.726044,208.196625 251.866837,209.810989 
M268.903625,221.410339 
	C264.520508,224.801498 267.923035,229.037079 266.868011,232.891937 
	C279.895447,232.615250 279.863556,235.499161 278.606079,221.384018 
	C275.712799,221.384018 272.760284,221.384018 268.903625,221.410339 
M290.921082,218.944275 
	C296.232513,216.170410 293.409973,211.681290 293.746490,207.769867 
	C289.577850,207.769867 285.884705,207.769867 282.245850,207.769867 
	C282.245850,211.698730 282.245850,215.229675 282.245850,218.992996 
	C285.096741,218.992996 287.560699,218.992996 290.921082,218.944275 
M302.594116,219.009827 
	C304.677795,219.009827 306.761505,219.009827 308.654388,219.009827 
	C308.654388,214.806259 308.654388,211.253128 308.654388,207.751083 
	C297.904877,206.932571 294.960144,209.882767 297.239014,219.009827 
	C298.686462,219.009827 300.176086,219.009827 302.594116,219.009827 
M304.389862,221.413879 
	C301.813446,221.413879 299.237000,221.413879 296.661804,221.413879 
	C296.661804,225.037262 296.661804,227.815353 296.661804,231.066833 
	C300.959778,230.635345 304.963440,230.233398 309.688812,229.758987 
	C307.386841,226.812943 312.504639,221.281006 304.389862,221.413879 
M321.565399,197.238281 
	C320.959442,196.091797 320.496643,194.085876 319.721252,193.956711 
	C317.191803,193.535355 314.548309,193.798813 311.736328,193.798813 
	C311.736328,197.485580 311.736328,201.027435 311.736328,204.615387 
	C314.812378,204.615387 317.562500,204.615387 320.571442,204.615387 
	C320.864471,202.285507 321.128540,200.186081 321.565399,197.238281 
M240.024811,191.868988 
	C239.472733,192.564590 238.334854,193.416382 238.471359,193.928391 
	C239.023254,195.998337 240.231537,197.902451 240.713226,199.980072 
	C241.768539,204.531738 244.339661,205.872314 248.742630,204.357269 
	C248.742630,200.276947 248.742630,196.256271 248.742630,191.858994 
	C245.866501,191.858994 243.387329,191.858994 240.024811,191.868988 
M312.250580,207.675171 
	C311.877136,211.318726 311.503723,214.962265 311.106445,218.838562 
	C314.149353,218.838562 316.394257,218.838562 318.877563,218.838562 
	C319.329102,215.038605 319.759216,211.418961 320.230011,207.456802 
	C317.320129,207.456802 315.199402,207.456802 312.250580,207.675171 
M316.749268,229.297241 
	C317.408020,226.830215 318.066772,224.363190 318.776062,221.706940 
	C315.839233,221.706940 313.802795,221.706940 311.719208,221.706940 
	C311.719208,224.582153 311.719208,227.097610 311.719208,229.851624 
	C313.383331,229.716324 314.673126,229.611465 316.749268,229.297241 
M238.571335,275.263763 
	C240.483490,275.589172 242.613281,276.554871 244.228256,276.005920 
	C245.238358,275.662598 246.105835,272.930237 245.857849,271.470184 
	C245.654724,270.274231 243.856750,268.812622 242.505417,268.456390 
	C239.391266,267.635529 237.755859,270.145416 238.571335,275.263763 
M316.172607,272.544617 
	C314.819580,271.136353 313.617432,269.496887 312.023956,268.457123 
	C311.529419,268.134430 309.662567,269.187073 308.963898,270.048126 
	C307.209656,272.210114 306.910278,274.658508 309.701569,276.209320 
	C312.863739,277.966187 315.017395,276.655762 316.172607,272.544617 
M246.847900,215.670105 
	C247.300537,216.634003 247.753159,217.597885 248.205795,218.561783 
	C248.420410,218.496338 248.635040,218.430908 248.849655,218.365463 
	C248.849655,214.870560 248.849655,211.375641 248.849655,207.682495 
	C247.162613,207.682495 245.769867,207.682495 243.757568,207.682495 
	C244.803223,210.401062 245.680054,212.680725 246.847900,215.670105 
z"/>
<path fill="#FFBF5D" opacity="1.000000" stroke="none" 
	d="
M316.073364,315.094666 
	C314.305267,319.999847 312.827179,324.598907 310.963196,329.035858 
	C310.455566,330.244202 308.779663,331.710449 307.651398,331.700928 
	C306.500153,331.691254 304.807373,330.236450 304.316528,329.023804 
	C302.275391,323.980988 300.598389,318.790771 297.914032,313.718628 
	C297.356110,319.680176 296.798157,325.641724 296.223877,331.777893 
	C293.537933,331.777893 291.242371,331.777893 288.133392,331.777893 
	C289.147858,320.397095 290.155487,309.092682 291.156219,297.865814 
	C298.361969,295.557068 299.601562,296.086853 302.116852,302.484833 
	C303.815643,306.805969 305.478668,311.141144 307.633240,316.696106 
	C309.618500,311.658966 311.259766,307.642883 312.788177,303.584290 
	C315.557037,296.231842 315.528961,296.221252 324.082855,297.450073 
	C325.072937,307.834656 326.077393,318.370209 327.223053,330.386353 
	C329.751190,324.289246 331.792633,319.416473 333.793182,314.526947 
	C335.807129,309.604675 337.537262,304.543427 339.919006,299.808319 
	C340.636749,298.381409 343.117157,297.098877 344.787079,297.102600 
	C346.445801,297.106323 349.003845,298.422333 349.613037,299.833771 
	C354.082886,310.190063 358.162292,320.714935 362.536224,331.613861 
	C357.737000,332.219452 353.347473,333.446869 351.911865,327.008087 
	C351.716553,326.132172 349.731995,325.266724 348.481567,325.098969 
	C346.192078,324.791779 343.726776,324.590668 341.535614,325.142609 
	C339.839874,325.569733 337.717133,326.900360 337.084595,328.383820 
	C335.930389,331.090820 334.588165,332.266907 331.582611,332.072327 
	C327.631622,331.816467 323.651520,332.009491 319.184418,332.009491 
	C318.762726,326.898193 318.452972,322.141083 317.910248,317.410675 
	C317.801666,316.464050 316.805206,315.619263 316.073364,315.094666 
M342.167694,317.888031 
	C344.060059,317.888031 345.952423,317.888031 348.578186,317.888031 
	C347.166870,314.193756 346.088623,311.371338 344.526398,307.282074 
	C343.227356,311.616669 342.334930,314.594421 342.167694,317.888031 
z"/>
<path fill="#FFBF5F" opacity="1.000000" stroke="none" 
	d="
M50.584408,297.075195 
	C64.156891,302.380859 67.320625,322.114227 52.550232,332.490814 
	C55.168884,332.275818 57.787537,332.060822 61.450142,331.760101 
	C61.682705,333.088806 62.967632,336.415802 62.230373,336.949615 
	C59.743259,338.750244 56.615501,340.136688 53.579929,340.544708 
	C51.530636,340.820190 49.263878,339.026825 47.019726,338.448792 
	C45.276772,337.999847 43.422070,337.951538 41.610332,337.812286 
	C39.836624,337.675995 38.054451,337.649841 36.276001,337.575378 
	C37.121880,335.810120 37.967758,334.044891 38.961960,331.970093 
	C33.807751,329.995087 29.058376,326.204010 28.101032,319.850311 
	C27.461779,315.607727 27.528641,310.787262 28.929174,306.805695 
	C31.964670,298.176056 40.777481,294.516571 50.584408,297.075195 
M52.470871,319.737762 
	C53.958710,314.582794 54.561123,309.488342 49.617119,305.785126 
	C45.785568,302.915192 40.356556,304.037933 37.765907,307.858459 
	C34.738350,312.323303 35.588078,320.018707 39.424561,322.879883 
	C43.049896,325.583588 48.656536,324.494659 52.470871,319.737762 
z"/>
<path fill="#FFBF5F" opacity="1.000000" stroke="none" 
	d="
M417.256958,296.891418 
	C419.489563,296.889954 421.307220,296.889954 424.210144,296.889954 
	C419.386505,302.720581 415.117157,307.881195 410.481354,313.484772 
	C415.577759,319.346954 420.639832,325.169647 425.784668,331.087524 
	C418.241058,333.317474 415.700073,332.538788 411.077118,327.005493 
	C408.674835,324.130157 406.125702,321.377563 402.750092,317.559784 
	C402.750092,323.098206 402.750092,327.307648 402.750092,331.752533 
	C399.792480,331.752533 397.371429,331.752533 394.614502,331.752533 
	C394.614502,320.220245 394.614502,308.851135 394.614502,297.185730 
	C397.277283,297.185730 399.691498,297.185730 402.572266,297.185730 
	C402.572266,301.229218 402.572266,305.152557 402.572266,309.075897 
	C402.935425,309.266663 403.298584,309.457397 403.661743,309.648132 
	C406.004181,306.866943 408.184692,303.924011 410.744995,301.360413 
	C412.504425,299.598663 414.791077,298.363434 417.256958,296.891418 
z"/>
<path fill="#FFBF5F" opacity="1.000000" stroke="none" 
	d="
M176.120483,309.017181 
	C176.120575,304.897186 176.120575,301.273407 176.120575,297.241974 
	C185.503403,296.607178 194.622253,295.296295 200.954514,303.900848 
	C205.414658,309.961487 205.517746,316.776672 201.986511,323.184387 
	C196.346649,333.418457 186.476791,332.351196 176.120392,331.766510 
	C176.120392,324.324005 176.120392,316.918671 176.120483,309.017181 
M194.903183,318.182251 
	C196.894318,309.272095 192.059616,303.044495 184.446152,304.807098 
	C184.446152,311.352020 184.446152,317.908173 184.446152,324.627411 
	C189.413315,325.064026 192.593079,322.996796 194.903183,318.182251 
z"/>
<path fill="#FFBE5D" opacity="1.000000" stroke="none" 
	d="
M389.814453,328.135590 
	C390.813110,329.398376 391.586304,330.390381 392.352722,331.373688 
	C380.854248,335.349182 378.493835,324.968597 372.225281,318.791992 
	C372.225281,323.598999 372.225281,327.541840 372.225281,331.731384 
	C369.264893,331.731384 367.003143,331.731384 364.369385,331.731384 
	C364.369385,320.302979 364.369385,308.920654 364.369385,297.073395 
	C369.589813,297.073395 374.844116,296.342133 379.740448,297.349976 
	C382.638336,297.946472 385.933533,300.798218 387.324677,303.518250 
	C389.264008,307.310242 388.393188,311.697845 385.084595,315.012573 
	C384.156311,315.942566 383.005432,316.650452 381.512482,317.803192 
	C384.245605,321.208069 386.917328,324.536438 389.814453,328.135590 
M372.022491,306.694763 
	C372.022491,308.417633 372.022491,310.140503 372.022491,311.847321 
	C375.965820,312.431976 379.217438,312.313110 379.443573,308.375244 
	C379.536163,306.763611 377.512360,304.488251 375.862000,303.471191 
	C374.213501,302.455322 371.842957,302.658539 372.022491,306.694763 
z"/>
<path fill="#FFBF5F" opacity="1.000000" stroke="none" 
	d="
M69.921631,296.890869 
	C73.108475,296.561646 73.765228,298.003754 73.728340,300.453827 
	C73.638046,306.451813 73.710411,312.452545 73.744301,318.451996 
	C73.763344,321.823242 74.750031,324.270294 78.791313,324.424988 
	C82.622169,324.571655 84.480209,322.641815 84.561714,319.144623 
	C84.728050,312.007996 84.611542,304.864777 84.611542,297.310059 
	C87.587555,297.310059 89.956596,297.310059 92.744919,297.310059 
	C92.744919,305.822296 93.199883,314.299042 92.595291,322.699493 
	C92.143646,328.974915 86.855453,332.560852 79.715843,332.817291 
	C72.441689,333.078613 66.831543,330.037872 66.076408,323.841736 
	C65.075592,315.629761 65.320549,307.252655 65.380264,298.949005 
	C65.385277,298.252960 68.043533,297.576019 69.921631,296.890869 
z"/>
<path fill="#FFBE5D" opacity="1.000000" stroke="none" 
	d="
M160.173920,299.933289 
	C163.857071,298.354248 167.316864,297.079529 170.776672,295.804810 
	C171.140076,296.420319 171.503479,297.035858 171.866882,297.651367 
	C167.567581,302.790710 163.268265,307.930023 158.631760,313.472443 
	C163.833405,319.409363 168.952713,325.252350 174.160294,331.196075 
	C161.571793,336.013397 158.460876,323.888153 151.009918,317.968842 
	C151.009918,322.921875 151.009918,327.136688 151.009918,331.668732 
	C148.258667,331.668732 146.003677,331.668732 143.319305,331.668732 
	C143.319305,320.398987 143.319305,309.027191 143.319305,297.273376 
	C145.656250,297.273376 148.019119,297.273376 150.804993,297.273376 
	C150.804993,301.392914 150.804993,305.323669 150.804993,310.872314 
	C154.495773,306.580597 157.223175,303.409119 160.173920,299.933289 
z"/>
<path fill="#FFBE5D" opacity="1.000000" stroke="none" 
	d="
M229.381714,331.233093 
	C233.445877,320.521973 237.477249,310.157959 241.835190,299.933075 
	C242.419952,298.561066 244.621475,297.154358 246.130814,297.090027 
	C247.873962,297.015778 250.730972,297.953125 251.292572,299.241180 
	C255.921738,309.858521 260.130096,320.659332 264.617645,331.780365 
	C259.922943,332.013367 255.395432,333.578308 254.007553,327.232574 
	C253.803467,326.299469 251.935913,325.259460 250.734390,325.111725 
	C248.114594,324.789581 245.414001,324.851410 242.775391,325.084320 
	C241.658051,325.183014 239.805008,325.949982 239.662781,326.680969 
	C238.423813,333.048981 234.064697,332.509247 229.381714,331.233093 
M247.523285,309.565094 
	C247.056412,309.438446 246.200119,309.154327 246.178513,309.207733 
	C245.088699,311.902618 244.070160,314.626312 242.958145,317.574249 
	C245.574982,317.574249 247.712708,317.574249 250.312836,317.574249 
	C249.372696,314.779114 248.601135,312.485199 247.523285,309.565094 
z"/>
<path fill="#FFBF5F" opacity="1.000000" stroke="none" 
	d="
M120.198334,308.349243 
	C117.102600,312.967102 117.305595,317.267365 120.688210,321.030426 
	C125.056389,325.889893 130.556580,324.655701 136.554642,322.998169 
	C137.599136,324.964905 138.712784,327.061859 139.815521,329.138245 
	C130.720169,335.017181 120.103203,333.563232 113.466103,325.794983 
	C107.578186,318.903625 107.744598,309.344971 113.869034,302.648468 
	C120.625374,295.261047 131.766479,293.902344 139.805954,299.736481 
	C138.807037,301.702057 137.781937,303.719147 136.639969,305.966217 
	C130.662521,303.470123 125.134613,303.098877 120.198334,308.349243 
z"/>
<path fill="#FFBE5B" opacity="1.000000" stroke="none" 
	d="
M447.484894,325.477905 
	C447.921326,327.582245 448.007141,329.388794 448.112457,331.605042 
	C441.470520,331.605042 435.098297,331.605042 428.364471,331.605042 
	C428.364471,320.274628 428.364471,308.920502 428.364471,297.231384 
	C434.837189,297.231384 441.198364,297.231384 447.828552,297.231384 
	C447.828552,299.406067 447.828552,301.326416 447.828552,303.874664 
	C444.002167,303.874664 440.277405,303.874664 436.313446,303.874664 
	C436.313446,306.412903 436.313446,308.327057 436.313446,310.790680 
	C440.006836,310.790680 443.576263,310.790680 447.501617,310.790680 
	C447.501617,313.244659 447.501617,315.157837 447.501617,317.674896 
	C443.943542,317.841003 440.241913,318.013794 436.310486,318.197327 
	C436.310486,320.434998 436.310486,322.356750 436.310486,325.180054 
	C439.960449,325.180054 443.547394,325.180054 447.484894,325.477905 
z"/>
<path fill="#FFBE5B" opacity="1.000000" stroke="none" 
	d="
M207.898865,312.003632 
	C207.898788,306.871490 207.898788,302.238495 207.898788,297.255859 
	C214.709961,297.255859 221.083359,297.255859 227.722900,297.255859 
	C227.722900,299.396057 227.722900,301.320862 227.722900,303.878723 
	C223.901581,303.878723 220.170547,303.878723 216.204025,303.878723 
	C216.204025,306.426697 216.204025,308.344818 216.204025,310.665253 
	C219.764450,310.829132 223.178879,310.986298 226.914062,311.158203 
	C226.914062,313.332733 226.914062,315.248108 226.914062,317.734497 
	C223.517960,317.734497 220.113266,317.734497 216.326447,317.734497 
	C216.326447,320.333008 216.326447,322.369843 216.326447,324.858398 
	C220.015945,324.858398 223.614410,324.858398 227.598511,324.858398 
	C227.598511,327.334381 227.598511,329.370941 227.598511,331.708466 
	C221.269531,331.708466 215.008499,331.708466 207.898926,331.708466 
	C207.898926,325.330322 207.898926,318.916565 207.898865,312.003632 
z"/>
<path fill="#FFBE5B" opacity="1.000000" stroke="none" 
	d="
M475.179565,300.905518 
	C474.358154,306.625061 469.645569,302.255707 467.171082,305.071808 
	C467.171082,313.330933 467.171082,322.240509 467.171082,331.572998 
	C464.408234,331.572998 462.041718,331.572998 459.077148,331.572998 
	C459.077148,322.616669 459.077148,313.580902 459.077148,304.283752 
	C456.123627,304.039368 453.723480,303.840790 451.058228,303.620270 
	C451.058228,301.449493 451.058228,299.535492 451.058228,296.929718 
	C458.405914,296.929718 465.657806,296.820129 472.896088,297.084137 
	C473.698517,297.113403 474.423218,299.274109 475.179565,300.905518 
z"/>
<path fill="#FFBE5B" opacity="1.000000" stroke="none" 
	d="
M285.484558,325.477661 
	C285.921265,327.583038 286.007233,329.390656 286.112549,331.604797 
	C279.470215,331.604797 273.097778,331.604797 266.364807,331.604797 
	C266.364807,320.274292 266.364807,308.919159 266.364807,297.230957 
	C268.715851,297.230957 270.967010,297.230957 273.817413,297.230957 
	C273.817413,306.186096 273.817413,315.226013 273.817413,325.179871 
	C277.972931,325.179871 281.553375,325.179871 285.484558,325.477661 
z"/>
<path fill="#FFBF5F" opacity="1.000000" stroke="none" 
	d="
M102.868294,296.897339 
	C104.149902,297.856934 105.686134,298.799164 105.702171,299.766602 
	C105.875824,310.238159 105.810608,320.713654 105.810608,331.597992 
	C102.939484,331.597992 100.412079,331.597992 97.578369,331.597992 
	C97.578369,320.233002 97.578369,308.977386 97.578369,297.208069 
	C99.246201,297.098999 100.831619,296.995331 102.868294,296.897339 
z"/>
<path fill="#FA8007" opacity="1.000000" stroke="none" 
	d="
M247.393219,258.105225 
	C244.975037,257.924255 242.929916,257.676575 240.884796,257.428894 
	C241.543518,255.427841 241.630096,252.832443 242.971817,251.540924 
	C246.519608,248.125839 250.229416,244.437927 254.598572,242.447327 
	C258.581909,240.632538 263.514862,240.902084 268.415283,240.321503 
	C264.462921,244.737198 260.294617,249.275620 255.713577,253.349960 
	C253.458389,255.355682 250.439560,256.502808 247.393219,258.105225 
z"/>
<path fill="#FF9832" opacity="1.000000" stroke="none" 
	d="
M219.085800,363.318054 
	C220.324921,363.943115 221.354492,364.203522 222.708939,364.546112 
	C218.416321,366.997498 216.566345,365.980103 216.073257,361.483887 
	C215.832626,359.289764 215.353394,357.121796 214.856827,354.206055 
	C215.075958,353.928162 216.035461,352.711426 216.281723,352.399139 
	C219.575607,353.017822 222.434265,353.233246 225.022079,354.185059 
	C226.203369,354.619568 227.114975,356.397522 227.676895,357.760712 
	C228.490250,359.733856 228.828369,361.900604 229.558243,363.916321 
	C229.602432,364.038330 232.093643,363.628876 232.118866,363.347656 
	C232.340683,360.874512 232.279922,358.374176 232.252701,355.882416 
	C232.248032,355.454437 232.006210,355.028992 231.862320,354.564911 
	C235.411484,354.356506 235.328491,354.359894 235.498138,358.526550 
	C235.594528,360.894043 236.015305,363.248322 236.305939,365.745483 
	C234.299591,365.863495 231.889725,366.144287 229.483749,366.114136 
	C225.878159,366.068970 225.393799,363.450867 225.217926,360.603394 
	C224.839920,354.484100 224.773621,354.459381 218.577744,356.720734 
	C218.673309,358.716095 218.774796,360.834747 219.085800,363.318054 
z"/>
<path fill="#FF8B19" opacity="1.000000" stroke="none" 
	d="
M275.752808,348.847931 
	C277.426788,349.026794 278.710175,349.123199 280.515533,349.258789 
	C280.425110,351.014771 280.332611,352.810577 280.253906,354.339264 
	C277.761475,353.002747 275.852661,351.689362 273.739899,351.015533 
	C273.070190,350.801910 271.567200,352.131500 271.031403,353.084290 
	C270.811493,353.475281 271.960022,355.076294 272.805817,355.527679 
	C274.240265,356.293152 276.255280,356.191101 277.429413,357.169800 
	C278.996277,358.475800 279.992706,360.466187 281.234192,362.162659 
	C279.407684,363.482056 277.736298,365.476990 275.713501,365.941498 
	C273.435455,366.464569 270.840729,365.608612 267.997925,365.312317 
	C267.997925,363.843628 267.997925,361.907623 267.997925,359.841888 
	C270.307617,361.391449 272.105042,363.097717 274.235809,363.817963 
	C275.317993,364.183777 277.000641,362.773376 278.411804,362.165924 
	C277.470917,361.074799 276.595703,359.914856 275.558105,358.925110 
	C275.120209,358.507446 274.347473,358.425018 273.714600,358.230316 
	C270.792816,357.331421 267.489777,356.434418 268.285126,352.468506 
	C269.022156,348.793365 272.124481,348.344147 275.752808,348.847931 
z"/>
<path fill="#FF9021" opacity="1.000000" stroke="none" 
	d="
M190.192230,348.887207 
	C192.079987,348.759003 193.660980,348.759003 194.855057,348.759003 
	C193.186066,352.653351 191.800629,356.212616 190.141876,359.639618 
	C189.069016,361.856110 187.596237,363.879059 186.302673,365.988739 
	C185.120270,363.945435 183.814728,361.962128 182.783340,359.845245 
	C181.093781,356.377502 179.582474,352.822906 177.901718,349.095978 
	C179.332367,349.095978 181.184387,349.095978 181.800125,349.095978 
	C183.161713,353.601379 184.407516,357.723572 185.653305,361.845795 
	C186.278473,361.905975 186.903656,361.966156 187.528839,362.026337 
	C188.314377,357.689331 189.099915,353.352356 190.192230,348.887207 
z"/>
<path fill="#FF9832" opacity="1.000000" stroke="none" 
	d="
M317.179474,370.782654 
	C315.515686,371.295227 313.961182,371.467987 312.714111,371.606537 
	C312.714111,365.679047 312.714111,360.246368 312.714111,354.412201 
	C314.830444,354.291840 317.507690,353.831268 320.121918,354.067749 
	C323.500488,354.373383 324.927948,356.888916 324.910553,360.031311 
	C324.893524,363.102539 323.694763,365.605316 320.230316,366.096558 
	C318.959747,366.276672 317.642242,366.125580 315.532715,366.125580 
	C316.192444,367.747528 316.740601,369.095184 317.179474,370.782654 
M315.848450,361.279541 
	C317.314209,362.174652 318.779968,363.069763 320.245728,363.964874 
	C321.016815,362.322540 322.356140,360.678223 322.350342,359.038635 
	C322.346771,358.021240 320.303101,357.011017 319.175140,355.997589 
	C318.033875,357.483917 316.892609,358.970215 315.848450,361.279541 
z"/>
<path fill="#FF9832" opacity="1.000000" stroke="none" 
	d="
M251.036209,365.160522 
	C247.999344,365.484833 244.955994,366.066284 241.929230,365.990082 
	C240.907501,365.964355 239.271835,364.370239 239.112305,363.312561 
	C238.950882,362.242371 239.986893,360.401337 241.003418,359.876923 
	C242.681015,359.011475 244.764771,358.933289 247.013977,357.240509 
	C244.819672,356.786987 242.625366,356.333466 240.431061,355.879944 
	C240.242325,355.662842 240.053589,355.445770 239.864853,355.228668 
	C241.719406,354.814667 243.737656,353.756592 245.380844,354.174255 
	C246.915009,354.564178 248.528564,356.300415 249.242447,357.843994 
	C250.158264,359.824158 250.209763,362.204041 250.830521,364.827820 
	C251.027405,365.243927 251.036209,365.160522 251.036209,365.160522 
z"/>
<path fill="#FF8B19" opacity="1.000000" stroke="none" 
	d="
M287.204773,354.286194 
	C292.774170,353.546234 293.979736,354.625702 294.099579,360.157623 
	C294.139801,362.014374 294.785187,363.858032 294.694122,366.437317 
	C293.781677,365.277191 292.560455,364.236877 292.049744,362.920837 
	C291.602264,361.767822 292.245178,360.213043 291.865021,359.006256 
	C291.512421,357.887054 290.443451,356.993469 289.689941,356.000549 
	C288.778931,356.970184 287.203247,357.871887 287.095825,358.923615 
	C286.874969,361.085114 287.439850,363.326935 287.705383,365.755798 
	C286.568054,365.755798 285.030975,365.755798 284.044464,365.755798 
	C284.044464,360.144562 284.044464,354.819214 284.044464,349.372162 
	C286.838196,348.863525 286.838196,348.863525 287.204773,354.286194 
z"/>
<path fill="#FF9021" opacity="1.000000" stroke="none" 
	d="
M307.796204,355.128479 
	C310.786774,358.215302 311.245361,361.674835 308.461517,364.167023 
	C306.891174,365.572876 303.168457,366.221741 301.409607,365.304626 
	C299.663605,364.394287 298.258118,361.069519 298.315125,358.844879 
	C298.419983,354.751648 302.380859,353.302643 307.796204,355.128479 
M306.032166,363.798981 
	C306.371368,361.648712 306.990265,359.478363 306.838257,357.363403 
	C306.803497,356.880096 303.644470,355.837311 302.751617,356.390015 
	C301.521759,357.151306 300.059082,359.828827 300.508728,360.541107 
	C301.491974,362.098511 303.617554,362.934692 306.032166,363.798981 
z"/>
<path fill="#FF8B19" opacity="1.000000" stroke="none" 
	d="
M209.164307,364.635040 
	C205.523071,365.376953 201.639023,365.814880 198.343399,366.186462 
	C198.343399,361.945190 198.343399,358.267242 198.343399,353.550049 
	C199.378281,354.568542 200.686523,355.267670 200.943268,356.243469 
	C201.352142,357.797363 200.761444,359.610840 201.154678,361.173279 
	C201.503357,362.558746 202.616135,363.751862 203.391586,365.029907 
	C204.250473,363.677979 205.551453,362.417755 205.855698,360.950806 
	C206.231140,359.140533 205.777573,357.158295 206.821243,354.666962 
	C207.386353,356.018768 208.177521,357.325226 208.460236,358.733734 
	C208.826202,360.556885 208.786530,362.461517 209.164307,364.635040 
z"/>
<path fill="#FF9021" opacity="1.000000" stroke="none" 
	d="
M251.500000,365.107361 
	C251.036209,365.160522 251.027405,365.243927 251.022430,365.265747 
	C252.040390,364.059113 253.823944,362.901001 253.945328,361.589081 
	C254.327728,357.456665 254.086258,353.266571 254.086258,347.542542 
	C255.146973,349.671875 256.240509,350.895294 256.303741,352.169800 
	C256.524506,356.619965 256.389191,361.087769 256.389191,366.081909 
	C255.558960,365.889099 253.761368,365.471619 251.500000,365.107361 
z"/>
<path fill="#FFFBF8" opacity="1.000000" stroke="none" 
	d="
M205.468475,156.696442 
	C202.298721,157.007568 199.179489,156.739975 198.922943,161.425781 
	C191.861542,161.846344 187.415207,158.322739 187.152161,152.498093 
	C186.921234,147.384140 191.101700,142.865860 196.320160,142.589279 
	C203.595215,142.203690 207.701996,148.250122 205.468475,156.696442 
z"/>
<path fill="#F67B01" opacity="1.000000" stroke="none" 
	d="
M258.936584,204.854630 
	C256.510986,204.854599 254.556244,204.854599 252.235458,204.854599 
	C252.235458,200.489868 252.235458,196.500336 252.235458,192.354187 
	C256.095154,192.354187 259.801941,192.354187 263.823669,192.354187 
	C263.823669,196.497437 263.823669,200.360184 263.823669,204.572266 
	C262.276672,204.671188 260.842072,204.762924 258.936584,204.854630 
z"/>
<path fill="#F67B01" opacity="1.000000" stroke="none" 
	d="
M259.939178,233.920166 
	C252.711548,234.202072 250.742462,230.839462 252.471695,221.655746 
	C256.151794,221.655746 259.875854,221.655746 264.132050,221.655746 
	C264.132050,225.020432 264.451294,228.167511 263.960205,231.182602 
	C263.786621,232.248474 261.635162,232.992233 259.939178,233.920166 
z"/>
<path fill="#F67B01" opacity="1.000000" stroke="none" 
	d="
M268.326508,192.495911 
	C272.026123,192.598862 275.295197,192.778320 278.843201,192.973099 
	C278.843201,196.915146 278.843201,200.609802 278.843201,204.580170 
	C274.889465,204.580170 271.185577,204.580170 266.494720,204.580170 
	C266.984985,200.378937 267.440491,196.475677 268.326508,192.495911 
z"/>
<path fill="#FE7F01" opacity="1.000000" stroke="none" 
	d="
M284.173035,192.970596 
	C287.578003,192.990723 290.509369,192.990723 293.707336,192.990723 
	C293.707336,196.988708 293.707336,200.545883 293.707336,204.469620 
	C290.007294,204.469620 286.317017,204.469620 281.167450,204.469620 
	C282.047333,200.466599 282.873352,196.708542 284.173035,192.970596 
z"/>
<path fill="#F67B01" opacity="1.000000" stroke="none" 
	d="
M279.018890,217.759018 
	C275.093262,218.566330 271.253143,218.907333 267.119507,219.274399 
	C267.119507,215.095734 267.119507,211.682068 267.119507,207.820633 
	C270.982025,207.820633 274.808929,207.820633 279.104401,207.820633 
	C279.104401,211.069382 279.104401,214.181046 279.018890,217.759018 
z"/>
<path fill="#F67B01" opacity="1.000000" stroke="none" 
	d="
M251.894226,209.357666 
	C255.726044,208.196625 259.530487,207.488907 263.819763,206.691025 
	C263.819763,211.397690 263.819763,214.933273 263.819763,218.736267 
	C259.925385,218.736267 256.196075,218.736267 251.866837,218.736267 
	C251.866837,215.669754 251.866837,212.740372 251.894226,209.357666 
z"/>
<path fill="#F67B01" opacity="1.000000" stroke="none" 
	d="
M269.355682,221.397186 
	C272.760284,221.384018 275.712799,221.384018 278.606079,221.384018 
	C279.863556,235.499161 279.895447,232.615250 266.868011,232.891937 
	C267.923035,229.037079 264.520508,224.801498 269.355682,221.397186 
z"/>
<path fill="#F67B01" opacity="1.000000" stroke="none" 
	d="
M290.472870,218.968628 
	C287.560699,218.992996 285.096741,218.992996 282.245850,218.992996 
	C282.245850,215.229675 282.245850,211.698730 282.245850,207.769867 
	C285.884705,207.769867 289.577850,207.769867 293.746490,207.769867 
	C293.409973,211.681290 296.232513,216.170410 290.472870,218.968628 
z"/>
<path fill="#F5F5F5" opacity="1.000000" stroke="none" 
	d="
M302.129883,219.009827 
	C300.176086,219.009827 298.686462,219.009827 297.239014,219.009827 
	C294.960144,209.882767 297.904877,206.932571 308.654388,207.751083 
	C308.654388,211.253128 308.654388,214.806259 308.654388,219.009827 
	C306.761505,219.009827 304.677795,219.009827 302.129883,219.009827 
z"/>
<path fill="#E9E8E8" opacity="1.000000" stroke="none" 
	d="
M304.840271,221.414047 
	C312.504639,221.281006 307.386841,226.812943 309.688812,229.758987 
	C304.963440,230.233398 300.959778,230.635345 296.661804,231.066833 
	C296.661804,227.815353 296.661804,225.037262 296.661804,221.413879 
	C299.237000,221.413879 301.813446,221.413879 304.840271,221.414047 
z"/>
<path fill="#E9E8E8" opacity="1.000000" stroke="none" 
	d="
M321.479004,197.662476 
	C321.128540,200.186081 320.864471,202.285507 320.571442,204.615387 
	C317.562500,204.615387 314.812378,204.615387 311.736328,204.615387 
	C311.736328,201.027435 311.736328,197.485580 311.736328,193.798813 
	C314.548309,193.798813 317.191803,193.535355 319.721252,193.956711 
	C320.496643,194.085876 320.959442,196.091797 321.479004,197.662476 
z"/>
<path fill="#F67B01" opacity="1.000000" stroke="none" 
	d="
M240.466492,191.863983 
	C243.387329,191.858994 245.866501,191.858994 248.742630,191.858994 
	C248.742630,196.256271 248.742630,200.276947 248.742630,204.357269 
	C244.339661,205.872314 241.768539,204.531738 240.713226,199.980072 
	C240.231537,197.902451 239.023254,195.998337 238.471359,193.928391 
	C238.334854,193.416382 239.472733,192.564590 240.466492,191.863983 
z"/>
<path fill="#E9E8E8" opacity="1.000000" stroke="none" 
	d="
M312.664612,207.565979 
	C315.199402,207.456802 317.320129,207.456802 320.230011,207.456802 
	C319.759216,211.418961 319.329102,215.038605 318.877563,218.838562 
	C316.394257,218.838562 314.149353,218.838562 311.106445,218.838562 
	C311.503723,214.962265 311.877136,211.318726 312.664612,207.565979 
z"/>
<path fill="#FFFBF8" opacity="1.000000" stroke="none" 
	d="
M287.197083,221.897156 
	C289.313446,221.750519 291.429810,221.603882 293.781067,221.440964 
	C293.781067,224.721695 293.781067,227.649246 293.781067,231.038666 
	C289.969330,231.396805 286.138031,231.756790 281.910614,232.153992 
	C281.910614,230.405777 281.910614,229.142807 282.280579,227.291077 
	C284.166077,225.100586 285.681580,223.498871 287.197083,221.897156 
z"/>
<path fill="#F67B01" opacity="1.000000" stroke="none" 
	d="
M302.710815,204.669403 
	C300.779205,204.669403 298.847595,204.669403 296.648895,204.669403 
	C296.648895,200.812637 296.648895,197.258591 296.648895,193.421921 
	C298.081665,193.329941 299.356903,193.248093 301.172424,193.581512 
	C302.045380,197.554337 302.378082,201.111862 302.710815,204.669403 
z"/>
<path fill="#F5F5F5" opacity="1.000000" stroke="none" 
	d="
M303.172058,204.748199 
	C302.378082,201.111862 302.045380,197.554337 301.556335,193.618683 
	C303.820465,193.370148 306.240967,193.499695 308.823608,193.637924 
	C308.823608,197.359024 308.823608,200.758423 308.823608,204.826996 
	C307.071564,204.826996 305.352448,204.826996 303.172058,204.748199 
z"/>
<path fill="#DDDDDD" opacity="1.000000" stroke="none" 
	d="
M316.356079,229.401917 
	C314.673126,229.611465 313.383331,229.716324 311.719208,229.851624 
	C311.719208,227.097610 311.719208,224.582153 311.719208,221.706940 
	C313.802795,221.706940 315.839233,221.706940 318.776062,221.706940 
	C318.066772,224.363190 317.408020,226.830215 316.356079,229.401917 
z"/>
<path fill="#DDDDDD" opacity="1.000000" stroke="none" 
	d="
M238.348724,274.983215 
	C237.755859,270.145416 239.391266,267.635529 242.505417,268.456390 
	C243.856750,268.812622 245.654724,270.274231 245.857849,271.470184 
	C246.105835,272.930237 245.238358,275.662598 244.228256,276.005920 
	C242.613281,276.554871 240.483490,275.589172 238.348724,274.983215 
z"/>
<path fill="#E9E8E8" opacity="1.000000" stroke="none" 
	d="
M316.128174,272.939758 
	C315.017395,276.655762 312.863739,277.966187 309.701569,276.209320 
	C306.910278,274.658508 307.209656,272.210114 308.963898,270.048126 
	C309.662567,269.187073 311.529419,268.134430 312.023956,268.457123 
	C313.617432,269.496887 314.819580,271.136353 316.128174,272.939758 
z"/>
<path fill="#F67B01" opacity="1.000000" stroke="none" 
	d="
M246.702393,215.315247 
	C245.680054,212.680725 244.803223,210.401062 243.757568,207.682495 
	C245.769867,207.682495 247.162613,207.682495 248.849655,207.682495 
	C248.849655,211.375641 248.849655,214.870560 248.849655,218.365463 
	C248.635040,218.430908 248.420410,218.496338 248.205795,218.561783 
	C247.753159,217.597885 247.300537,216.634003 246.702393,215.315247 
z"/>
<path fill="#FF9021" opacity="1.000000" stroke="none" 
	d="
M286.855469,221.743103 
	C285.681580,223.498871 284.166077,225.100586 282.362000,226.845886 
	C282.073425,225.360321 282.073425,223.731201 282.073425,221.589066 
	C283.660980,221.589066 285.087402,221.589066 286.855469,221.743103 
z"/>
<path fill="#FFFBF5" opacity="1.000000" stroke="none" 
	d="
M341.805115,317.730103 
	C342.334930,314.594421 343.227356,311.616669 344.526398,307.282074 
	C346.088623,311.371338 347.166870,314.193756 348.578186,317.888031 
	C345.952423,317.888031 344.060059,317.888031 341.805115,317.730103 
z"/>
<path fill="#FFFBF8" opacity="1.000000" stroke="none" 
	d="
M52.276409,320.079651 
	C48.656536,324.494659 43.049896,325.583588 39.424561,322.879883 
	C35.588078,320.018707 34.738350,312.323303 37.765907,307.858459 
	C40.356556,304.037933 45.785568,302.915192 49.617119,305.785126 
	C54.561123,309.488342 53.958710,314.582794 52.276409,320.079651 
z"/>
<path fill="#FFFBF5" opacity="1.000000" stroke="none" 
	d="
M194.764786,318.536926 
	C192.593079,322.996796 189.413315,325.064026 184.446152,324.627411 
	C184.446152,317.908173 184.446152,311.352020 184.446152,304.807098 
	C192.059616,303.044495 196.894318,309.272095 194.764786,318.536926 
z"/>
<path fill="#FFFBF5" opacity="1.000000" stroke="none" 
	d="
M372.024536,306.262970 
	C371.842957,302.658539 374.213501,302.455322 375.862000,303.471191 
	C377.512360,304.488251 379.536163,306.763611 379.443573,308.375244 
	C379.217438,312.313110 375.965820,312.431976 372.022491,311.847321 
	C372.022491,310.140503 372.022491,308.417633 372.024536,306.262970 
z"/>
<path fill="#FFFBF5" opacity="1.000000" stroke="none" 
	d="
M247.676422,309.878174 
	C248.601135,312.485199 249.372696,314.779114 250.312836,317.574249 
	C247.712708,317.574249 245.574982,317.574249 242.958145,317.574249 
	C244.070160,314.626312 245.088699,311.902618 246.178513,309.207733 
	C246.200119,309.154327 247.056412,309.438446 247.676422,309.878174 
z"/>
<path fill="#FFFBF5" opacity="1.000000" stroke="none" 
	d="
M315.799896,360.868042 
	C316.892609,358.970215 318.033875,357.483917 319.175140,355.997589 
	C320.303101,357.011017 322.346771,358.021240 322.350342,359.038635 
	C322.356140,360.678223 321.016815,362.322540 320.245728,363.964874 
	C318.779968,363.069763 317.314209,362.174652 315.799896,360.868042 
z"/>
<path fill="#FFFBF5" opacity="1.000000" stroke="none" 
	d="
M305.654358,363.932220 
	C303.617554,362.934692 301.491974,362.098511 300.508728,360.541107 
	C300.059082,359.828827 301.521759,357.151306 302.751617,356.390015 
	C303.644470,355.837311 306.803497,356.880096 306.838257,357.363403 
	C306.990265,359.478363 306.371368,361.648712 305.654358,363.932220 
z"/>
</svg>