<?xml version="1.0" standalone="no"?>
<!DOCTYPE svg PUBLIC "-//W3C//DTD SVG 20010904//EN"
 "http://www.w3.org/TR/2001/REC-SVG-20010904/DTD/svg10.dtd">
<svg version="1.0" xmlns="http://www.w3.org/2000/svg"
 width="359.000000pt" height="182.000000pt" viewBox="0 0 359.000000 182.000000"
 preserveAspectRatio="xMidYMid meet">

<g transform="translate(0.000000,182.000000) scale(0.100000,-0.100000)"
fill="#000000" stroke="none">
<path d="M1504 1516 c-27 -27 -34 -42 -34 -74 0 -29 -5 -41 -16 -44 -8 -2 -29
-34 -46 -72 -25 -57 -29 -76 -23 -115 3 -25 9 -93 11 -150 6 -109 -10 -171
-42 -171 -12 0 -14 -16 -12 -92 l3 -93 446 -3 c392 -2 448 0 459 13 18 21 -2
65 -29 65 -19 0 -21 8 -23 132 -2 94 -7 133 -15 136 -10 3 -13 -28 -13 -132 0
-129 -1 -136 -20 -136 -18 0 -20 8 -22 158 l-3 157 -109 3 c-81 2 -112 -1
-118 -10 -4 -7 -8 -79 -8 -160 0 -124 -2 -148 -15 -148 -12 0 -15 27 -17 158
l-3 157 -212 3 c-197 2 -213 4 -213 20 0 26 62 47 91 32 16 -9 28 -9 49 0 21
9 33 9 50 0 17 -9 29 -9 50 0 21 9 33 9 50 0 16 -9 29 -9 49 0 21 8 34 8 54
-1 21 -9 33 -9 52 -1 19 9 31 9 50 0 19 -8 31 -8 50 0 19 9 31 9 50 0 18 -8
32 -8 48 -1 37 17 97 -5 97 -35 0 -38 24 -20 32 24 4 21 10 54 14 72 5 25 -1
51 -21 100 -37 87 -41 92 -81 92 -19 0 -34 5 -34 10 0 6 5 10 10 10 20 0 50
41 50 68 0 57 -18 62 -213 62 -164 0 -179 -2 -197 -20 -28 -28 -25 -57 10 -90
17 -15 30 -31 30 -34 0 -3 -16 -6 -35 -6 -32 0 -35 2 -35 30 0 38 -23 84 -52
104 -12 9 -42 16 -66 16 -37 0 -50 -6 -78 -34z m146 -24 c47 -59 8 -142 -68
-142 -50 0 -86 36 -86 85 0 82 104 121 154 57z m360 -81 c0 -5 -7 -12 -16 -15
-34 -13 1 -26 70 -26 l73 0 17 -43 c9 -23 16 -46 16 -50 0 -4 -169 -7 -374 -7
l-375 0 21 50 c11 28 24 50 28 50 4 0 15 -9 25 -20 42 -46 122 -49 169 -5 25
23 35 25 153 27 90 2 128 7 131 16 3 9 -12 12 -52 12 -31 0 -56 5 -56 10 0 6
35 10 85 10 47 0 85 -4 85 -9z m-432 -197 c-6 -56 -68 -53 -68 2 0 21 5 24 36
24 32 0 35 -2 32 -26z m202 -3 c0 -21 -6 -32 -20 -36 -27 -9 -50 11 -50 41 0
21 5 24 35 24 32 0 35 -2 35 -29z m206 15 c8 -22 -14 -56 -36 -56 -22 0 -44
34 -36 56 3 8 19 14 36 14 17 0 33 -6 36 -14z m204 -10 c0 -30 -23 -50 -50
-41 -14 4 -20 15 -20 36 0 27 3 29 35 29 30 0 35 -3 35 -24z m-650 -180 c0
-32 -2 -34 -35 -33 -20 1 -42 -6 -55 -18 -20 -18 -20 -18 -20 33 l0 52 55 0
55 0 0 -34z m148 -28 c4 -77 22 -75 22 2 l0 60 60 0 60 0 0 -110 0 -111 -57 3
c-55 3 -58 4 -61 31 -4 37 -18 34 -27 -5 -6 -31 -7 -32 -15 -10 -5 12 -14 22
-20 22 -6 0 -15 11 -20 25 -5 14 -21 30 -35 35 -23 9 -25 15 -25 65 l0 56 58
-3 57 -3 3 -57z m370 -75 l3 -93 -46 0 -45 0 0 96 0 95 43 -3 42 -3 3 -92z
m-538 23 c-6 -6 -18 -5 -32 1 -21 10 -21 10 9 9 19 -1 28 -5 23 -10z m120
-121 l0 -25 -135 0 -135 0 0 25 0 25 135 0 135 0 0 -25z m0 -80 l0 -25 -135 0
-135 0 0 25 0 25 135 0 135 0 0 -25z m245 -15 c3 -5 1 -10 -4 -10 -6 0 -11 5
-11 10 0 6 2 10 4 10 3 0 8 -4 11 -10z m318 -7 c-13 -2 -35 -2 -50 0 -16 2 -5
4 22 4 28 0 40 -2 28 -4z"/>
<path d="M1548 1484 c-37 -19 -42 -67 -10 -91 41 -32 112 -4 112 45 0 21 -24
52 -40 52 -5 0 -14 2 -22 5 -7 2 -25 -2 -40 -11z"/>
</g>
</svg>
